# File created by Blade
# Date/Time:  Thu Sep 25 18:48:06 2014
# Frame Rate: 120.000 fps
#------------------------------------------------------
:FULLY-SPECIFIED
:DEGREES
859
root -0.114439 32.519768 -6.958261 77.414155 4.139348 -2.059723
Spine 46.613425 2.076446 4.703715
Head -15.578409 -5.973329 10.498715
LeftShoulder -24.294926 52.005481 16.871549
LeftArm -35.816117 39.531271 -101.685531
LeftForeArm 7.335784 -0.000000 15.646127
LeftHand -14.488107 -0.000000 -68.634360
LeftHandThumb1 -26.253704 0.000000 33.147579
RightShoulder -20.380420 -22.620389 -36.422199
RightArm -61.209352 -13.128597 95.300021
RightForeArm -25.264769 -0.000000 6.577362
RightHand 1.204951 -0.000000 68.222336
RightHandThumb1 -24.326973 -0.000000 -32.862282
LeftUpLeg -86.597102 7.521143 -4.098374
LeftLeg -5.467824 -0.000000 0.000000
LeftFoot 8.720268 6.493645 -13.831180
LeftToeBase 13.477838 -0.000000 -0.000000
RightUpLeg -84.982298 -3.395156 11.116904
RightLeg -4.243907 -0.000000 0.000000
RightFoot 8.698496 -4.663760 4.173425
RightToeBase 1.593927 -0.000000 -0.000000
860
root -0.108886 32.521935 -6.945330 76.870868 4.131382 -2.057649
Spine 46.591831 2.068622 4.768216
Head -16.130752 -5.993237 10.341163
LeftShoulder -24.470564 51.890782 16.651736
LeftArm -35.426785 39.506995 -101.314177
LeftForeArm 7.642877 0.000000 15.693208
LeftHand -14.433591 -0.000000 -68.357220
LeftHandThumb1 -26.253704 0.000000 33.147579
RightShoulder -20.549418 -22.408155 -36.407706
RightArm -61.175011 -13.304963 95.467426
RightForeArm -25.396847 0.000000 6.704056
RightHand 1.327725 -0.000000 68.072167
RightHandThumb1 -24.326973 -0.000000 -32.862282
LeftUpLeg -86.043420 7.558323 -4.037989
LeftLeg -5.437338 -0.000000 0.000000
LeftFoot 8.729075 6.417120 -13.715744
LeftToeBase 13.382931 -0.000000 -0.000000
RightUpLeg -84.441286 -3.508535 11.057215
RightLeg -4.212068 -0.000000 0.000000
RightFoot 8.675991 -4.685281 4.153754
RightToeBase 1.620508 -0.000000 -0.000000
861
root -0.107007 32.524024 -6.929498 76.312919 4.129372 -2.049409
Spine 46.561905 2.107463 4.804332
Head -16.577058 -6.036161 10.394827
LeftShoulder -24.531460 51.732580 16.632041
LeftArm -35.106247 39.548998 -101.050829
LeftForeArm 7.988063 -0.000000 15.710900
LeftHand -14.425385 -0.000000 -68.082980
LeftHandThumb1 -26.253704 0.000000 33.147579
RightShoulder -20.662307 -22.284028 -36.272567
RightArm -60.998619 -13.443504 95.519563
RightForeArm -25.417829 -0.000000 6.805306
RightHand 1.308752 -0.000000 67.858424
RightHandThumb1 -24.326973 -0.000000 -32.862282
LeftUpLeg -85.469444 7.590374 -3.970180
LeftLeg -5.398530 -0.000000 0.000000
LeftFoot 8.689682 6.385650 -13.704961
LeftToeBase 13.372834 -0.000000 -0.000000
RightUpLeg -83.876562 -3.628761 11.023755
RightLeg -4.192286 -0.000000 0.000000
RightFoot 8.643477 -4.679789 4.161504
RightToeBase 1.655163 -0.000000 -0.000000
862
root -0.104496 32.526030 -6.915468 75.789277 4.116784 -2.042567
Spine 46.490227 2.192547 4.863006
Head -17.047483 -6.075360 10.457328
LeftShoulder -24.609613 51.579896 16.493659
LeftArm -35.057188 40.240564 -100.982343
LeftForeArm 7.678876 0.000000 15.989041
LeftHand -14.509738 -0.000000 -67.504277
LeftHandThumb1 -26.253704 0.000000 33.147579
RightShoulder -20.796436 -22.047944 -36.135717
RightArm -61.005739 -13.755876 95.723777
RightForeArm -25.426247 -0.000000 7.047386
RightHand 0.944133 -0.000000 67.108911
RightHandThumb1 -24.326973 -0.000000 -32.862282
LeftUpLeg -84.932915 7.622454 -3.890974
LeftLeg -5.352096 -0.000000 0.000000
LeftFoot 8.633705 6.388778 -13.695458
LeftToeBase 13.341858 -0.000000 -0.000000
RightUpLeg -83.351019 -3.736167 10.968322
RightLeg -4.166061 -0.000000 0.000000
RightFoot 8.623120 -4.690049 4.137223
RightToeBase 1.652779 -0.000000 -0.000000
863
root -0.098136 32.528470 -6.895799 75.207627 4.057788 -2.005473
Spine 46.530577 2.281879 4.899507
Head -17.600055 -6.148276 10.503340
LeftShoulder -24.558145 51.360938 16.545593
LeftArm -34.682830 40.596008 -100.536245
LeftForeArm 8.040521 -0.000000 16.197252
LeftHand -14.522845 -0.000000 -66.704836
LeftHandThumb1 -26.253704 0.000000 33.147579
RightShoulder -20.956011 -21.773183 -36.040384
RightArm -60.982430 -14.091297 95.887496
RightForeArm -25.516930 -0.000000 7.394100
RightHand 0.983642 0.000000 66.796889
RightHandThumb1 -24.326973 -0.000000 -32.862282
LeftUpLeg -84.305398 7.632940 -3.870071
LeftLeg -5.339984 -0.000000 0.000000
LeftFoot 8.603345 6.391738 -13.653556
LeftToeBase 13.242754 -0.000000 -0.000000
RightUpLeg -82.761980 -3.880893 10.832868
RightLeg -4.141120 -0.000000 0.000000
RightFoot 8.582284 -4.705152 4.167633
RightToeBase 1.631689 -0.000000 -0.000000
864
root -0.094644 32.531053 -6.879435 74.668174 4.044920 -1.990804
Spine 46.518244 2.323255 4.926340
Head -18.167988 -6.154727 10.567747
LeftShoulder -24.587987 51.131623 16.496458
LeftArm -33.973879 40.524623 -99.574398
LeftForeArm 8.991791 -0.000000 16.379996
LeftHand -14.446055 0.000000 -65.531682
LeftHandThumb1 -26.253704 0.000000 33.147579
RightShoulder -21.071627 -21.497724 -35.928845
RightArm -60.829324 -14.603757 95.917193
RightForeArm -25.970736 -0.000000 7.910946
RightHand 1.120051 -0.000000 66.002883
RightHandThumb1 -24.326973 -0.000000 -32.862282
LeftUpLeg -83.768344 7.653600 -3.832342
LeftLeg -5.262471 -0.000000 0.000000
LeftFoot 8.526065 6.363018 -13.636817
LeftToeBase 13.247561 -0.000000 -0.000000
RightUpLeg -82.228132 -4.001753 10.774492
RightLeg -4.092668 -0.000000 0.000000
RightFoot 8.545963 -4.706272 4.146979
RightToeBase 1.625998 -0.000000 -0.000000
865
root -0.090104 32.533701 -6.860797 74.095215 4.053905 -1.946987
Spine 46.563079 2.309076 4.984961
Head -18.768509 -6.143449 10.571080
LeftShoulder -24.673937 50.938689 16.396272
LeftArm -33.083899 40.625763 -98.418528
LeftForeArm 9.889894 -0.000000 16.650952
LeftHand -14.618594 -0.000000 -63.755237
LeftHandThumb1 -26.253704 0.000000 33.147579
RightShoulder -21.162993 -21.093554 -35.924831
RightArm -60.717275 -15.330071 96.102735
RightForeArm -26.469897 -0.000000 8.425439
RightHand 1.019800 -0.000000 64.719435
RightHandThumb1 -24.326973 -0.000000 -32.862282
LeftUpLeg -83.210337 7.645755 -3.853401
LeftLeg -5.166028 -0.000000 0.000000
LeftFoot 8.485966 6.267558 -13.574575
LeftToeBase 13.264034 -0.000000 -0.000000
RightUpLeg -81.676181 -4.165334 10.731152
RightLeg -4.006883 -0.000000 0.000000
RightFoot 8.464016 -4.695750 4.133958
RightToeBase 1.575518 -0.000000 -0.000000
866
root -0.082633 32.536503 -6.843826 73.563370 4.092246 -1.892180
Spine 46.546898 2.288357 5.139230
Head -19.288180 -6.163731 10.529321
LeftShoulder -24.559714 50.585983 16.373723
LeftArm -32.326391 40.824432 -97.268266
LeftForeArm 10.631098 -0.000000 16.910033
LeftHand -14.548099 -0.000000 -61.924744
LeftHandThumb1 -26.253704 0.000000 33.147579
RightShoulder -21.303928 -20.649050 -35.936426
RightArm -60.586263 -16.251870 96.328846
RightForeArm -26.811088 -0.000000 8.821867
RightHand 0.868303 -0.000000 63.793977
RightHandThumb1 -24.326973 -0.000000 -32.862282
LeftUpLeg -82.691386 7.608358 -3.779782
LeftLeg -5.062105 -0.000000 0.000000
LeftFoot 8.436348 6.240880 -13.516965
LeftToeBase 13.217244 -0.000000 -0.000000
RightUpLeg -81.152524 -4.346610 10.678029
RightLeg -3.950772 -0.000000 0.000000
RightFoot 8.394687 -4.698059 4.200553
RightToeBase 1.536824 -0.000000 -0.000000
867
root -0.075506 32.539372 -6.824801 73.002644 4.074431 -1.869807
Spine 46.581640 2.353577 5.243266
Head -19.884477 -6.247224 10.532744
LeftShoulder -24.395270 50.142841 16.385888
LeftArm -31.674540 41.336009 -96.160899
LeftForeArm 11.140682 -0.000000 17.275941
LeftHand -14.359576 0.000000 -60.551130
LeftHandThumb1 -26.253704 0.000000 33.147579
RightShoulder -21.441601 -20.127959 -35.887663
RightArm -60.496061 -17.308952 96.648793
RightForeArm -26.963219 -0.000000 9.203545
RightHand 1.031465 -0.000000 62.971625
RightHandThumb1 -24.326973 -0.000000 -32.862282
LeftUpLeg -82.112443 7.618839 -3.740185
LeftLeg -5.007911 -0.000000 0.000000
LeftFoot 8.378965 6.225018 -13.474602
LeftToeBase 13.169659 -0.000000 -0.000000
RightUpLeg -80.592694 -4.476225 10.572750
RightLeg -3.899268 -0.000000 0.000000
RightFoot 8.339132 -4.726697 4.198302
RightToeBase 1.541094 -0.000000 -0.000000
868
root -0.068760 32.542116 -6.802506 72.464922 4.048742 -1.839963
Spine 46.503283 2.381318 5.225362
Head -20.108101 -6.283203 10.614384
LeftShoulder -24.139960 49.743323 16.388794
LeftArm -31.000879 41.724718 -95.026988
LeftForeArm 11.724808 -0.000000 17.510625
LeftHand -14.338122 -0.000000 -59.249350
LeftHandThumb1 -26.253704 0.000000 33.147579
RightShoulder -21.303176 -19.465381 -35.796541
RightArm -60.511509 -18.444223 97.060762
RightForeArm -26.970231 -0.000000 9.543704
RightHand 1.025419 -0.000000 62.573321
RightHandThumb1 -24.326973 -0.000000 -32.862282
LeftUpLeg -81.541677 7.625524 -3.700932
LeftLeg -4.970032 -0.000000 0.000000
LeftFoot 8.336138 6.206372 -13.416898
LeftToeBase 13.071876 -0.000000 -0.000000
RightUpLeg -80.049613 -4.602050 10.434844
RightLeg -3.843934 -0.000000 0.000000
RightFoot 8.281630 -4.784976 4.219333
RightToeBase 1.451807 -0.000000 -0.000000
869
root -0.059467 32.544935 -6.779027 71.888052 4.035118 -1.806750
Spine 46.517030 2.434745 5.343423
Head -20.447964 -6.392612 10.627709
LeftShoulder -23.744730 49.161317 16.371017
LeftArm -30.400550 42.291361 -93.833437
LeftForeArm 11.842957 0.000000 17.702289
LeftHand -14.351362 0.000000 -58.328094
LeftHandThumb1 -26.253704 0.000000 33.147579
RightShoulder -21.263287 -18.662600 -35.774211
RightArm -60.600971 -19.559879 97.353140
RightForeArm -27.064092 -0.000000 9.764666
RightHand 0.877946 -0.000000 62.453878
RightHandThumb1 -24.326973 -0.000000 -32.862282
LeftUpLeg -80.924328 7.618376 -3.592556
LeftLeg -4.922888 -0.000000 0.000000
LeftFoot 8.251453 6.230424 -13.417348
LeftToeBase 13.127479 -0.000000 -0.000000
RightUpLeg -79.468621 -4.749256 10.336967
RightLeg -3.791083 -0.000000 0.000000
RightFoot 8.219379 -4.809544 4.199448
RightToeBase 1.434707 -0.000000 -0.000000
870
root -0.049283 32.547076 -6.755641 71.344337 4.076875 -1.760618
Spine 46.460138 2.308472 5.429718
Head -20.642006 -6.382754 10.457445
LeftShoulder -23.454253 48.440177 16.120005
LeftArm -29.971164 42.844951 -92.648143
LeftForeArm 11.743215 0.000000 17.762923
LeftHand -14.518795 -0.000000 -57.638069
LeftHandThumb1 -26.253704 0.000000 33.147579
RightShoulder -21.044571 -17.658251 -35.825141
RightArm -60.800771 -20.700044 97.598772
RightForeArm -26.930525 -0.000000 10.007891
RightHand 0.731058 0.000000 62.300365
RightHandThumb1 -24.326973 -0.000000 -32.862282
LeftUpLeg -80.347090 7.576235 -3.425888
LeftLeg -4.863703 -0.000000 0.000000
LeftFoot 8.173294 6.268487 -13.432280
LeftToeBase 13.055952 -0.000000 -0.000000
RightUpLeg -78.920575 -4.920681 10.302999
RightLeg -3.736565 -0.000000 0.000000
RightFoot 8.125065 -4.832931 4.174589
RightToeBase 1.458588 -0.000000 -0.000000
871
root -0.039735 32.549635 -6.733090 70.784364 4.135159 -1.735948
Spine 46.396827 2.292046 5.675283
Head -20.779598 -6.673575 10.187388
LeftShoulder -22.865553 47.653843 16.017097
LeftArm -29.613088 43.660696 -91.526295
LeftForeArm 11.325679 -0.000000 17.855048
LeftHand -14.024890 -0.000000 -57.914440
LeftHandThumb1 -26.253704 0.000000 33.147579
RightShoulder -20.878336 -16.761454 -35.849988
RightArm -60.967308 -21.884927 97.899303
RightForeArm -26.751631 -0.000000 10.166036
RightHand 0.602639 0.000000 62.237270
RightHandThumb1 -24.326973 -0.000000 -32.862282
LeftUpLeg -79.801973 7.557765 -3.340491
LeftLeg -4.746736 -0.000000 0.000000
LeftFoot 8.086192 6.223425 -13.382409
LeftToeBase 13.050575 -0.000000 -0.000000
RightUpLeg -78.368064 -5.073731 10.272549
RightLeg -3.649826 -0.000000 0.000000
RightFoot 8.043793 -4.877009 4.095317
RightToeBase 1.411482 -0.000000 -0.000000
